<?xml version="1.0" encoding="iso-8859-1"?>
<svg fill="#000000" height="800px" width="800px" version="1.1" id="Layer_1" xmlns="http://www.w3.org/2000/svg" xmlns:xlink="http://www.w3.org/1999/xlink"
     viewBox="0 0 512 512" xml:space="preserve">
<g>
	<g>
		<g>
			<path stroke="#ffffff" fill="#ffffff" d="M59.733,85.333h358.4c4.719,0,8.533-3.823,8.533-8.533s-3.814-8.533-8.533-8.533h-358.4c-4.71,0-8.533-3.831-8.533-8.533
				s3.823-8.533,8.533-8.533h187.733c4.719,0,8.533-3.823,8.533-8.533V25.6c0-4.702,3.823-8.533,8.533-8.533h85.333
				c4.71,0,8.533,3.831,8.533,8.533v8.533h-76.8c-4.719,0-8.533,3.823-8.533,8.533c0,4.71,3.814,8.533,8.533,8.533h170.667
				c4.71,0,8.533,3.831,8.533,8.533s-3.823,8.533-8.533,8.533c-4.719,0-8.533,3.823-8.533,8.533v358.4
				c0,4.71,3.814,8.533,8.533,8.533s8.533-3.823,8.533-8.533V83.874c9.933-3.524,17.067-13.013,17.067-24.141
				c0-14.114-11.486-25.6-25.6-25.6h-76.8V25.6c0-14.114-11.486-25.6-25.6-25.6h-85.333c-14.114,0-25.6,11.486-25.6,25.6v8.533
				h-179.2c-14.114,0-25.6,11.486-25.6,25.6S45.619,85.333,59.733,85.333z"/>
            <path stroke="#ffffff" fill="#ffffff" d="M139.085,267.051c-1.613,1.613-2.5,3.797-2.483,6.067c0.128,21.205,5.649,41.847,15.94,59.682
				c10.3,17.843,25.182,32.794,43.034,43.238c1.314,0.776,2.807,1.169,4.309,1.169c0.742,0,1.485-0.094,2.219-0.29
				c2.193-0.589,4.07-2.039,5.197-4.028l33.801-59.477c2.278-3.994,0.973-9.071-2.944-11.477
				c-5.043-3.098-8.986-7.074-11.716-11.802c-2.654-4.599-4.403-11.221-4.574-17.306c-0.137-4.617-3.917-8.294-8.533-8.294h-68.198
				C142.857,264.533,140.681,265.438,139.085,267.051z M205.653,281.6c1.092,6.187,3.166,12.143,6.016,17.075
				c2.833,4.89,6.46,9.225,10.829,12.937l-25.583,45.013c-12.075-8.516-22.204-19.567-29.594-32.358
				c-7.305-12.663-11.904-27.554-13.244-42.667H205.653z"/>
            <path stroke="#ffffff" fill="#ffffff" d="M452.267,460.8h-358.4c-4.719,0-8.533,3.823-8.533,8.533s3.814,8.533,8.533,8.533h358.4c4.71,0,8.533,3.831,8.533,8.533
				s-3.823,8.533-8.533,8.533H59.733c-4.71,0-8.533-3.831-8.533-8.533s3.823-8.533,8.533-8.533c4.719,0,8.533-3.823,8.533-8.533
				v-358.4c0-4.71-3.814-8.533-8.533-8.533s-8.533,3.823-8.533,8.533v351.326c-9.933,3.524-17.067,13.013-17.067,24.141
				c0,14.114,11.486,25.6,25.6,25.6h392.533c14.114,0,25.6-11.486,25.6-25.6S466.381,460.8,452.267,460.8z"/>
            <path stroke="#ffffff" fill="#ffffff" d="M304.7,372.89c1.126,1.988,3.004,3.439,5.197,4.028c0.734,0.196,1.476,0.29,2.219,0.29c1.502,0,2.995-0.393,4.309-1.169
				c17.835-10.436,32.717-25.387,43.042-43.238c10.291-17.843,15.804-38.477,15.923-59.682c0.017-2.27-0.879-4.454-2.483-6.067
				c-1.596-1.613-3.772-2.517-6.05-2.517h-68.19c-4.617,0-8.397,3.678-8.533,8.294c-0.162,6.059-1.929,12.698-4.565,17.306
				c-2.739,4.736-6.682,8.704-11.716,11.793c-3.917,2.415-5.222,7.492-2.953,11.486L304.7,372.89z M300.348,298.658
				c2.833-4.949,4.915-10.889,5.99-17.058h51.576c-1.331,15.112-5.922,30.003-13.218,42.667
				c-7.407,12.792-17.545,23.851-29.611,32.358l-25.583-45.013C293.879,307.9,297.506,303.565,300.348,298.658z"/>
            <path stroke="#ffffff" fill="#ffffff" d="M256,290.133c9.412,0,17.067-7.654,17.067-17.067c0-9.412-7.654-17.067-17.067-17.067
				c-9.404,0-17.067,7.654-17.067,17.067C238.933,282.479,246.596,290.133,256,290.133z"/>
            <path stroke="#ffffff" fill="#ffffff" d="M235.878,244.207c1.374,0,2.756-0.333,4.045-1.033c10.419-5.623,21.734-5.632,32.154,0
				c4.053,2.176,9.088,0.759,11.418-3.192l34.603-59.008c1.161-1.963,1.476-4.318,0.888-6.519c-0.589-2.21-2.031-4.088-4.019-5.214
				c-35.951-20.463-81.98-20.463-117.931,0c-1.997,1.126-3.43,3.004-4.028,5.214c-0.589,2.202-0.273,4.557,0.888,6.519
				l34.611,59.017C230.093,242.688,232.943,244.207,235.878,244.207z M298.829,180.113l-26.206,44.663
				c-10.812-3.866-22.426-3.874-33.254,0l-26.197-44.663C240.017,167.714,271.991,167.714,298.829,180.113z"/>
		</g>
	</g>
</g>
</svg>